<svg width="24" height="24" viewBox="0 0 24 24" fill="none" xmlns="http://www.w3.org/2000/svg">
<path d="M17.598 2.40039H6.21005C3.77448 2.40039 1.80005 4.37481 1.80005 6.81039V13.8964C1.80005 16.332 3.77448 18.3064 6.21005 18.3064H17.598C20.0336 18.3064 22.0081 16.332 22.0081 13.8964V6.81039C22.0081 4.37481 20.0336 2.40039 17.598 2.40039Z" stroke="#9ca2a7" stroke-width="2" stroke-miterlimit="10" stroke-linecap="round"/>
<path d="M14.9527 11.0166L10.6867 13.4766C10.5688 13.5453 10.4349 13.5817 10.2985 13.582C10.162 13.5823 10.0279 13.5465 9.90972 13.4783C9.79155 13.4101 9.69351 13.3118 9.62555 13.1935C9.55758 13.0752 9.52211 12.941 9.52271 12.8046V7.87856C9.52392 7.74281 9.56052 7.60973 9.62892 7.49247C9.69732 7.37521 9.79513 7.27783 9.9127 7.20996C10.0303 7.14209 10.1635 7.10607 10.2993 7.10548C10.435 7.10488 10.5686 7.13972 10.6867 7.20656L14.9527 9.67256C15.0712 9.74026 15.1696 9.83807 15.2381 9.95608C15.3066 10.0741 15.3427 10.2081 15.3427 10.3446C15.3427 10.481 15.3066 10.615 15.2381 10.733C15.1696 10.851 15.0712 10.9489 14.9527 11.0166Z" stroke="#9ca2a7" stroke-width="2" stroke-miterlimit="10"/>
</svg>
